<svg width="24" height="24" viewBox="0 0 24 24" fill="none" xmlns="http://www.w3.org/2000/svg">
<path d="M10.5 7.5C10.5 7.91418 10.1642 8.25 9.75 8.25C9.33582 8.25 9 7.91418 9 7.5C9 7.08582 9.33582 6.75 9.75 6.75C10.1642 6.75 10.5 7.08582 10.5 7.5Z" fill="white"/>
<path d="M5.25 4.5V13.5H14.25V4.5H5.25ZM12.75 12C12.75 12.4125 12.4125 12.75 12 12.75H7.5C7.0875 12.75 6.75 12.4125 6.75 12V10.9724C6.75 10.0573 7.2 9.2625 7.89009 8.76746C7.64265 8.40753 7.50002 7.96487 7.50002 7.5C7.50002 6.2625 8.51252 5.25 9.75002 5.25C10.9875 5.25 12 6.2625 12 7.5C12 7.96509 11.8576 8.40754 11.6099 8.76746C12.3 9.2625 12.75 10.0575 12.75 10.9724L12.75 12Z" fill="white"/>
<path d="M10.0294 9.75H9.47057C8.79741 9.75 8.25 10.2979 8.25 10.9709V11.25H11.25V10.9709C11.25 10.2978 10.7026 9.75 10.0294 9.75H10.0294Z" fill="white"/>
<path d="M17.25 0H2.25C1.0125 0 0 1.0125 0 2.25V21.75C0 22.9875 1.0125 24 2.25 24H14.52C13.5525 23.2276 12.8101 22.1925 12.39 21H4.50004C4.08754 21 3.75004 20.6625 3.75004 20.25C3.75004 19.8375 4.08754 19.5 4.50004 19.5H12.045C12.0151 19.2526 12 19.005 12 18.75C12 18.495 12.0151 18.2474 12.045 18H4.50004C4.08754 18 3.75004 17.6625 3.75004 17.25C3.75004 16.8375 4.08754 16.5 4.50004 16.5H12.39C12.5775 15.9675 12.8325 15.4651 13.14 15H5.25004C4.42504 15 3.75004 14.325 3.75004 13.5V4.5C3.75004 3.675 4.42504 3 5.25004 3H14.25C15.075 3 15.75 3.675 15.75 4.5V12.705C16.6576 12.255 17.6776 12 18.75 12C19.005 12 19.2526 12.0151 19.5 12.0451V2.25008C19.5 1.01258 18.4875 7.71429e-05 17.25 7.71429e-05L17.25 0Z" fill="white"/>
<path d="M18.75 13.5C15.855 13.5 13.5 15.855 13.5 18.75C13.5 21.645 15.855 24 18.75 24C21.645 24 24 21.645 24 18.75C24 15.855 21.645 13.5 18.75 13.5ZM20.7825 18.33L18.8851 20.2274C18.7427 20.3699 18.5476 20.4524 18.3526 20.4524C18.15 20.4524 17.9625 20.3699 17.82 20.2274L16.7175 19.1248C16.425 18.8324 16.425 18.3597 16.7175 18.0673C17.0099 17.7748 17.4899 17.7748 17.7825 18.0673L18.3526 18.6373L19.7177 17.2722C20.0101 16.9798 20.4901 16.9798 20.7828 17.2722C21.0752 17.5647 21.0752 18.0373 20.7828 18.3298L20.7825 18.33Z" fill="white"/>
</svg>
