<svg width="32" height="32" viewBox="0 0 32 32" fill="none" xmlns="http://www.w3.org/2000/svg">
<path d="M8.6588 27.2651H8.35292C7.24352 27.2651 6.68941 27.2651 6.3447 26.9135C6 26.5631 6 25.9979 6 24.8663V23.532C6 22.9104 6 22.5996 6.15647 22.3212C6.31294 22.044 6.54941 21.9036 7.02234 21.6228C10.1353 19.7761 14.554 18.7369 17.5046 20.5309C17.7022 20.6521 17.8811 20.7984 18.034 20.9724C18.192 21.1491 18.3137 21.3562 18.392 21.5816C18.4702 21.8069 18.5034 22.046 18.4896 22.2847C18.4758 22.5234 18.4152 22.7568 18.3115 22.9713C18.2078 23.1857 18.063 23.3767 17.8858 23.5332C17.7444 23.6702 17.5717 23.7692 17.3834 23.8212C17.5246 23.8044 17.6599 23.7852 17.7893 23.7648C18.861 23.5908 19.761 23.0052 20.5846 22.3704L22.7116 20.7325C23.0911 20.4509 23.5482 20.2993 24.0175 20.2993C24.4867 20.2993 24.9439 20.4509 25.3233 20.7325C25.9974 21.252 26.2045 22.1076 25.7774 22.806C25.2798 23.6196 24.5786 24.6599 23.9057 25.2959C23.2316 25.9319 22.2281 26.5007 21.4093 26.9039C20.501 27.3515 19.4987 27.6082 18.4787 27.7774C16.4105 28.1182 14.2552 28.0654 12.2082 27.6358C11.0403 27.3909 9.85111 27.2659 8.6588 27.2651ZM9.04232 4.70331C8.61056 5.1437 8.44939 5.75088 8.38939 6.70006C9.07902 6.69042 9.73773 6.40663 10.2253 5.90909C10.7129 5.41155 10.9908 4.73955 10.9999 4.03613C10.0705 4.09853 9.47408 4.26293 9.04232 4.70331ZM21.781 4.70331C21.3493 4.26293 20.754 4.09853 19.8234 4.03733C19.8328 4.74074 20.1111 5.41261 20.5989 5.90993C21.0867 6.40725 21.7455 6.69074 22.4351 6.70006C22.374 5.75208 22.2128 5.1437 21.781 4.70331ZM21.781 12.8967C21.3493 13.3371 20.754 13.5015 19.8234 13.5627C19.8328 12.8592 20.1111 12.1874 20.5989 11.6901C21.0867 11.1927 21.7455 10.9092 22.4351 10.8999C22.374 11.8479 22.2128 12.4563 21.781 12.8967ZM9.04232 12.8967C9.47408 13.3371 10.0694 13.5015 10.9999 13.5627C10.9905 12.8592 10.7123 12.1874 10.2245 11.6901C9.73668 11.1927 9.07784 10.9092 8.38821 10.8999C8.44939 11.8479 8.61056 12.4563 9.04232 12.8967Z" fill="#80AFBF"/>
<path fill-rule="evenodd" clip-rule="evenodd" d="M8.35291 8.49987C9.52297 8.49987 10.6451 8.02578 11.4725 7.18189C12.2998 6.338 12.7646 5.19344 12.7646 4H18.0587C18.0587 5.19344 18.5235 6.338 19.3509 7.18189C20.1782 8.02578 21.3003 8.49987 22.4704 8.49987V9.09985C21.3003 9.09985 20.1782 9.57394 19.3509 10.4178C18.5235 11.2617 18.0587 12.4063 18.0587 13.5997H12.7646C12.7646 12.4063 12.2998 11.2617 11.4725 10.4178C10.6451 9.57394 9.52297 9.09985 8.35291 9.09985V8.49987ZM15.4117 9.99983C15.7237 9.99983 16.0229 9.8734 16.2435 9.64836C16.4642 9.42333 16.5881 9.11811 16.5881 8.79986C16.5881 8.48161 16.4642 8.17639 16.2435 7.95136C16.0229 7.72632 15.7237 7.5999 15.4117 7.5999C15.0996 7.5999 14.8004 7.72632 14.5798 7.95136C14.3591 8.17639 14.2352 8.48161 14.2352 8.79986C14.2352 9.11811 14.3591 9.42333 14.5798 9.64836C14.8004 9.8734 15.0996 9.99983 15.4117 9.99983Z" fill="#80AFBF"/>
</svg>
