<svg width="32" height="32" viewBox="0 0 32 32" fill="none" xmlns="http://www.w3.org/2000/svg">
<path fill-rule="evenodd" clip-rule="evenodd" d="M7.4886 4.00005H19.0965C20.0791 4.00005 20.8834 4.79815 20.8834 5.77287V13.2446H17.6301V17.7305H20.8834V21.7397C20.8834 22.715 20.0792 23.5129 19.0965 23.5129H15.2214V10.1834C15.2214 8.93334 14.4711 7.5573 13.337 6.97981L7.48831 4L7.4886 4.00005ZM18.8678 14.4725H24.5392L22.718 12.665L24.1521 11.2419L27.7044 14.7674C28.0985 15.1588 28.0985 15.8161 27.7044 16.2075L24.1521 19.733L22.718 18.3099L24.5392 16.5024H18.8678V14.4725ZM5.0188 4.51904L12.6098 8.38678C13.1705 8.67234 13.6286 9.48009 13.6286 10.1828V27.1405C13.6286 27.8433 13.1705 28.1846 12.6098 27.899L5.0188 24.0315C4.45827 23.7459 4 22.9379 4 22.2352V5.27701C4 4.57412 4.45829 4.23323 5.0188 4.5188V4.51904Z" fill="white"/>
</svg>
