<svg width="16" height="16" viewBox="0 0 16 16" fill="none" xmlns="http://www.w3.org/2000/svg">
<path d="M7.06683 9.20016L5.6335 7.76683C5.51127 7.64461 5.35572 7.5835 5.16683 7.5835C4.97794 7.5835 4.82239 7.64461 4.70016 7.76683C4.57794 7.88905 4.51683 8.04461 4.51683 8.2335C4.51683 8.42239 4.57794 8.57794 4.70016 8.70016L6.60016 10.6002C6.7335 10.7335 6.88905 10.8002 7.06683 10.8002C7.24461 10.8002 7.40016 10.7335 7.5335 10.6002L11.3002 6.8335C11.4224 6.71127 11.4835 6.55572 11.4835 6.36683C11.4835 6.17794 11.4224 6.02239 11.3002 5.90016C11.1779 5.77794 11.0224 5.71683 10.8335 5.71683C10.6446 5.71683 10.4891 5.77794 10.3668 5.90016L7.06683 9.20016ZM8.00016 14.6668C7.07794 14.6668 6.21127 14.4917 5.40016 14.1415C4.58905 13.7913 3.8835 13.3164 3.2835 12.7168C2.6835 12.1168 2.20861 11.4113 1.85883 10.6002C1.50905 9.78905 1.33394 8.92239 1.3335 8.00016C1.3335 7.07794 1.50861 6.21127 1.85883 5.40016C2.20905 4.58905 2.68394 3.8835 3.2835 3.2835C3.8835 2.6835 4.58905 2.20861 5.40016 1.85883C6.21127 1.50905 7.07794 1.33394 8.00016 1.3335C8.92239 1.3335 9.78905 1.50861 10.6002 1.85883C11.4113 2.20905 12.1168 2.68394 12.7168 3.2835C13.3168 3.8835 13.7919 4.58905 14.1422 5.40016C14.4924 6.21127 14.6673 7.07794 14.6668 8.00016C14.6668 8.92239 14.4917 9.78905 14.1415 10.6002C13.7913 11.4113 13.3164 12.1168 12.7168 12.7168C12.1168 13.3168 11.4113 13.7919 10.6002 14.1422C9.78905 14.4924 8.92239 14.6673 8.00016 14.6668Z" fill="#005F7E"/>
</svg>
