<svg width="23" height="16" viewBox="0 0 23 16" fill="none" xmlns="http://www.w3.org/2000/svg">
<path fill-rule="evenodd" clip-rule="evenodd" d="M11.5002 5.54395C12.9243 5.54395 13.9213 6.6667 13.9213 7.92995C13.9213 9.33342 12.782 10.3159 11.5002 10.3159C10.0761 10.3159 9.0791 9.19319 9.0791 7.92995C9.0791 6.52647 10.2184 5.54395 11.5002 5.54395Z" fill="#005F7E"/>
<path fill-rule="evenodd" clip-rule="evenodd" d="M22.8932 8.21052C16.3421 18.5965 6.8004 18.5965 0.106808 8.21052C-0.0356028 8.07017 -0.0356028 7.92983 0.106808 7.78948C6.8004 -2.59649 16.3421 -2.59649 22.8932 7.78948C23.0356 7.92983 23.0356 8.07017 22.8932 8.21052ZM11.5002 3.01753C8.65184 3.01753 6.37327 5.26317 6.37327 8.0701C6.37327 10.877 8.65194 13.1227 11.5002 13.1227C14.3484 13.1227 16.6271 10.877 16.6271 8.0701C16.6271 5.26317 14.3484 3.01753 11.5002 3.01753Z" fill="#005F7E"/>
</svg>
