<svg width="64" height="64" viewBox="0 0 64 64" fill="none" xmlns="http://www.w3.org/2000/svg">
<g clip-path="url(#clip0_7_4363)">
<rect width="64" height="64" rx="16" fill="#E6EFF2"/>
<g clip-path="url(#clip1_7_4363)">
<path d="M37.8543 15.572H25.0867C19.2661 15.572 14.5723 20.266 14.5723 26.0865V38.854C14.5723 44.6746 19.2662 49.3685 25.0867 49.3685H37.8543C43.6749 49.3685 48.3688 44.6746 48.3688 38.854V26.0865C48.3688 20.2659 43.6748 15.572 37.8543 15.572ZM39.4502 30.2172L31.0949 38.5724C30.6254 39.0419 30.0154 39.2764 29.4051 39.2764C28.7948 39.2764 28.1847 39.0416 27.7153 38.5724L23.4909 34.3008C22.5522 33.3621 22.5522 31.907 23.4909 30.9679C24.4296 30.0292 25.8847 30.0292 26.8237 30.9679L29.4055 33.5497L36.0709 26.8843C37.0096 25.9456 38.4648 25.9456 39.4038 26.8843C40.3422 27.823 40.3422 29.3252 39.4503 30.2172H39.4502Z" fill="#005F7E"/>
<path d="M38.9339 11.8171H24.0072C16.7314 11.8171 10.8171 17.7314 10.8171 25.0072V39.887C10.8171 47.2095 16.7314 53.124 24.0072 53.124H38.887C46.2095 53.124 52.124 47.2097 52.124 39.9339V25.0072C52.124 17.7314 46.2097 11.8171 38.9339 11.8171ZM50.2464 39.9339C50.2464 46.1769 45.1769 51.2464 38.9339 51.2464H24.0072C17.7642 51.2464 12.6947 46.1769 12.6947 39.9339V25.0072C12.6947 18.7642 17.7642 13.6947 24.0072 13.6947H38.887C45.1768 13.6947 50.2464 18.7642 50.2464 25.0072V39.9339Z" fill="#005F7E"/>
</g>
</g>
<defs>
<clipPath id="clip0_7_4363">
<rect width="64" height="64" rx="16" fill="white"/>
</clipPath>
<clipPath id="clip1_7_4363">
<rect width="43" height="43" fill="white" transform="translate(10 11)"/>
</clipPath>
</defs>
</svg>
