<svg width="32" height="32" viewBox="0 0 32 32" fill="none" xmlns="http://www.w3.org/2000/svg">
<path d="M18.6017 9.45179C18.6017 10.0019 19.0463 10.4499 19.593 10.4499H24.4746L18.6013 4.53125L18.6017 9.45179Z" fill="#005F7E"/>
<path d="M7.0004 25.2122C7.0004 26.7498 8.241 28 9.76678 28H22.2336C23.7594 28 25 26.7498 25 25.2122L24.9998 12.255H19.5929C18.0583 12.255 16.8099 10.9969 16.8099 9.45127V4H9.76638C8.24059 4 7 5.25018 7 6.78775L7.0004 25.2122ZM12.8409 16.6482H15.1042V14.3674C15.1042 13.8685 15.5049 13.4646 16 13.4646C16.4952 13.4646 16.8959 13.8685 16.8959 14.3674V16.6482H19.1584C19.6535 16.6482 20.0542 17.052 20.0542 17.551C20.0542 18.0499 19.6535 18.4537 19.1584 18.4537H16.8959V20.7337C16.8959 21.2326 16.4952 21.6364 16 21.6364C15.5049 21.6364 15.1042 21.2326 15.1042 20.7337V18.4537H12.8409C12.3458 18.4537 11.9451 18.0499 11.9451 17.551C11.9451 17.052 12.3458 16.6482 12.8409 16.6482Z" fill="#005F7E"/>
</svg>
