<svg width="148" height="148" viewBox="0 0 148 148" fill="none" xmlns="http://www.w3.org/2000/svg">
<path d="M70.9167 83.25C73.075 83.25 75.1059 82.9663 77.0093 82.399C78.9128 81.8317 80.7874 80.9848 82.6333 79.8583L92.0375 89.5708C92.8597 90.4958 93.9142 90.9337 95.201 90.8843C96.4878 90.835 97.5916 90.3972 98.5125 89.5708C99.4375 88.6458 99.9267 87.542 99.9802 86.2593C100.034 84.9767 99.5958 83.8708 98.6667 82.9417L89.1083 73.3833C90.2389 71.6361 91.0878 69.7861 91.6552 67.8333C92.2225 65.8806 92.5041 63.825 92.5 61.6667C92.5 55.6028 90.3663 50.4886 86.099 46.324C81.8317 42.1595 76.7709 40.0792 70.9167 40.0833C65.0583 40.0833 59.9955 42.1636 55.7282 46.324C51.4608 50.4845 49.3292 55.5987 49.3333 61.6667C49.3333 67.7306 51.467 72.8448 55.7343 77.0093C60.0017 81.1739 65.0624 83.2541 70.9167 83.25ZM70.9167 74C67.525 74 64.6205 72.7913 62.2032 70.374C59.7858 67.9567 58.5792 65.0542 58.5833 61.6667C58.5833 58.275 59.792 55.3705 62.2093 52.9532C64.6267 50.5358 67.5291 49.3292 70.9167 49.3333C74.2056 49.3333 77.0833 50.542 79.55 52.9593C82.0167 55.3767 83.25 58.2791 83.25 61.6667C83.25 65.0583 82.0413 67.9628 79.624 70.3802C77.2067 72.7975 74.3042 74.0041 70.9167 74ZM12.3333 129.5C10.5861 129.5 9.1205 128.908 7.9365 127.724C6.7525 126.54 6.16255 125.076 6.16666 123.333C6.16666 121.586 6.75866 120.121 7.94266 118.937C9.12666 117.753 10.5902 117.163 12.3333 117.167H135.667C137.414 117.167 138.88 117.759 140.064 118.943C141.247 120.127 141.837 121.59 141.833 123.333C141.833 125.081 141.241 126.546 140.057 127.73C138.873 128.914 137.41 129.504 135.667 129.5H12.3333ZM24.6667 111C21.275 111 18.3705 109.791 15.9532 107.374C13.5358 104.957 12.3292 102.054 12.3333 98.6667V30.8333C12.3333 27.4417 13.542 24.5372 15.9593 22.1198C18.3767 19.7025 21.2791 18.4959 24.6667 18.5H123.333C126.725 18.5 129.63 19.7087 132.047 22.126C134.464 24.5433 135.671 27.4458 135.667 30.8333V98.6667C135.667 102.058 134.458 104.963 132.041 107.38C129.623 109.798 126.721 111.004 123.333 111H24.6667Z" fill="#BACCD0"/>
</svg>
