<svg width="16" height="16" viewBox="0 0 16 16" fill="none" xmlns="http://www.w3.org/2000/svg">
<path d="M2.28759 2.3006L2.28758 2.30062C1.39152 3.19368 0.862742 4.15804 0.579087 5.42395L2.28759 2.3006ZM2.28759 2.3006C3.27078 1.32064 4.35712 0.762686 5.7116 0.539774L2.28759 2.3006ZM2.28803 11.0207L2.28805 11.0207C3.18581 11.9178 4.15219 12.4464 5.4155 12.7281C5.4155 12.7281 5.41551 12.7281 5.41551 12.7281L5.30667 13.2162C5.86407 13.3405 7.35559 13.3515 7.9046 13.2353L2.28803 11.0207ZM2.28803 11.0207C1.39051 10.1239 0.862468 9.16016 0.579087 7.89557L2.28803 11.0207ZM11.5846 10.3943L11.8224 10.0516L11.9046 9.93312L11.9046 9.93307C12.2986 9.36548 12.6788 8.32735 12.7946 7.44916L12.7946 7.44914C12.8246 7.22189 12.8327 6.82403 12.8173 6.40638C12.8017 5.98689 12.7644 5.60333 12.7198 5.40105C12.4487 4.17158 11.9113 3.1919 11.0175 2.29883L11.0175 2.29882C10.1243 1.40626 9.14817 0.871154 7.91186 0.596782L7.91184 0.59678C7.71415 0.5529 7.28681 0.516611 6.81749 0.504388C6.3488 0.492182 5.91689 0.50601 5.71163 0.539769L11.5846 10.3943ZM11.5846 10.3943L11.8791 10.6897M11.5846 10.3943L11.8791 10.6897M11.8791 10.6897L13.6943 12.5101C13.7412 12.5572 13.7869 12.603 13.8315 12.6477C14.7609 13.5796 15.1838 14.0037 15.3854 14.2628C15.48 14.3845 15.4903 14.4269 15.4926 14.4362L15.4927 14.4365C15.4998 14.4654 15.4998 14.4886 15.4998 14.6492V14.6655C15.4998 14.8357 15.48 14.9244 15.4535 14.9878M11.8791 10.6897L15.4535 14.9878M15.4535 14.9878C15.4268 15.0518 15.3766 15.13 15.2533 15.2532L15.4535 14.9878ZM7.60899 1.6061L7.60897 1.60609C6.70387 1.44471 5.77542 1.50861 4.96113 1.80023C3.45887 2.33821 2.32865 3.47021 1.78708 4.97651L1.78708 4.97652C1.51293 5.73906 1.43665 6.78377 1.59011 7.60215C1.97783 9.66977 3.62306 11.3211 5.68889 11.7159C6.20448 11.8144 7.10106 11.8144 7.61665 11.7159C9.68108 11.3214 11.328 9.6683 11.7154 7.60215L11.7154 7.60213C11.8148 7.07232 11.8148 6.2472 11.7154 5.71738L11.7154 5.71737C11.3277 3.64999 9.65862 1.97161 7.60899 1.6061ZM0.5 6.65976C0.5 5.84996 0.5132 5.71814 0.579077 5.424L0.579076 7.89552C0.513199 7.60137 0.5 7.46956 0.5 6.65976Z" fill="white" stroke="#D1DDE0"/>
</svg>
