<svg width="16" height="17" viewBox="0 0 16 17" fill="none" xmlns="http://www.w3.org/2000/svg">
<path d="M0 6.05304C0 4.77358 0 4.13385 0.281913 3.66076C0.452055 3.37524 0.690673 3.13663 0.976194 2.96648C1.44928 2.68457 2.08901 2.68457 3.36847 2.68457H12.6315C13.911 2.68457 14.5507 2.68457 15.0238 2.96648C15.3093 3.13663 15.5479 3.37524 15.7181 3.66076C16 4.13385 16 4.77358 16 6.05304C16 6.37291 16 6.53284 15.9295 6.65111C15.887 6.72249 15.8273 6.78215 15.756 6.82468C15.6377 6.89516 15.4777 6.89516 15.1579 6.89516H0.842118C0.522253 6.89516 0.362321 6.89516 0.244049 6.82468C0.172668 6.78215 0.113014 6.72249 0.0704783 6.65111C0 6.53284 0 6.37291 0 6.05304Z" fill="white"/>
<path fill-rule="evenodd" clip-rule="evenodd" d="M0 12.9998C0 14.8854 0 15.8282 0.585786 16.414C1.17157 16.9998 2.11438 16.9998 4 16.9998H12C13.8856 16.9998 14.8284 16.9998 15.4142 16.414C16 15.8282 16 14.8854 16 12.9998V9.57863C16 9.10723 16 8.87153 15.8536 8.72508C15.7071 8.57863 15.4714 8.57863 15 8.57863H1C0.528596 8.57863 0.292893 8.57863 0.146447 8.72508C0 8.87153 0 9.10723 0 9.57863V12.9998ZM4.0001 11.1053C4.0001 10.7854 4.0001 10.6255 4.07057 10.5072C4.11311 10.4359 4.17276 10.3762 4.24414 10.3337C4.36242 10.2632 4.52235 10.2632 4.84222 10.2632H6.35798C6.67784 10.2632 6.83778 10.2632 6.95605 10.3337C7.02743 10.3762 7.08708 10.4359 7.12962 10.5072C7.2001 10.6255 7.2001 10.7854 7.2001 11.1053C7.2001 11.4252 7.2001 11.5851 7.12962 11.7034C7.08708 11.7748 7.02743 11.8344 6.95605 11.8769C6.83778 11.9474 6.67784 11.9474 6.35798 11.9474H4.84222C4.52235 11.9474 4.36242 11.9474 4.24414 11.8769C4.17276 11.8344 4.11311 11.7748 4.07057 11.7034C4.0001 11.5851 4.0001 11.4252 4.0001 11.1053ZM4.07057 13.8759C4.0001 13.9942 4.0001 14.1541 4.0001 14.474C4.0001 14.7938 4.0001 14.9538 4.07057 15.072C4.11311 15.1434 4.17276 15.2031 4.24414 15.2456C4.36242 15.3161 4.52235 15.3161 4.84221 15.3161H6.35798C6.67784 15.3161 6.83778 15.3161 6.95605 15.2456C7.02743 15.2031 7.08708 15.1434 7.12962 15.072C7.2001 14.9538 7.2001 14.7938 7.2001 14.474C7.2001 14.1541 7.2001 13.9942 7.12962 13.8759C7.08708 13.8045 7.02743 13.7448 6.95605 13.7023C6.83778 13.6318 6.67784 13.6318 6.35798 13.6318H4.84221C4.52235 13.6318 4.36242 13.6318 4.24414 13.7023C4.17276 13.7448 4.11311 13.8045 4.07057 13.8759ZM8.80012 11.1053C8.80012 10.7854 8.80012 10.6255 8.8706 10.5072C8.91313 10.4359 8.97279 10.3762 9.04417 10.3337C9.16244 10.2632 9.32237 10.2632 9.64224 10.2632H11.158C11.4779 10.2632 11.6378 10.2632 11.7561 10.3337C11.8274 10.3762 11.8871 10.4359 11.9296 10.5072C12.0001 10.6255 12.0001 10.7854 12.0001 11.1053C12.0001 11.4252 12.0001 11.5851 11.9296 11.7034C11.8871 11.7748 11.8274 11.8344 11.7561 11.8769C11.6378 11.9474 11.4779 11.9474 11.158 11.9474H9.64224C9.32237 11.9474 9.16244 11.9474 9.04417 11.8769C8.97279 11.8344 8.91313 11.7748 8.8706 11.7034C8.80012 11.5851 8.80012 11.4252 8.80012 11.1053ZM8.8706 13.8759C8.80012 13.9942 8.80012 14.1541 8.80012 14.474C8.80012 14.7938 8.80012 14.9538 8.8706 15.072C8.91313 15.1434 8.97279 15.2031 9.04417 15.2456C9.16244 15.3161 9.32237 15.3161 9.64224 15.3161H11.158C11.4779 15.3161 11.6378 15.3161 11.7561 15.2456C11.8274 15.2031 11.8871 15.1434 11.9296 15.072C12.0001 14.9538 12.0001 14.7938 12.0001 14.474C12.0001 14.1541 12.0001 13.9942 11.9296 13.8759C11.8871 13.8045 11.8274 13.7448 11.7561 13.7023C11.6378 13.6318 11.4779 13.6318 11.158 13.6318H9.64224C9.32237 13.6318 9.16244 13.6318 9.04417 13.7023C8.97279 13.7448 8.91313 13.8045 8.8706 13.8759Z" fill="white"/>
<path d="M3.99988 1L3.99988 3.52636" stroke="white" stroke-width="2" stroke-linecap="round"/>
<path d="M12.0001 1L12.0001 3.52636" stroke="white" stroke-width="2" stroke-linecap="round"/>
</svg>
