<svg width="10%" height="10%" viewBox="0 0 32 32" fill="none" xmlns="http://www.w3.org/2000/svg">
<path d="M30.2298 12.3919C29.0085 11.1097 27.3618 10.4038 25.5933 10.4038C25.5916 10.4038 25.573 10.4043 25.5694 10.4038C25.4019 10.4038 25.2079 10.3255 25.1495 10.1491C23.9319 6.47138 20.5114 4 16.6395 4C12.1729 4 8.35367 7.33796 7.75508 11.7645C7.72829 11.9629 7.55407 12.1122 7.34944 12.1122H5.71026C2.61771 12.1122 0.0564789 14.5606 0.000943751 17.5707C-0.0263241 19.0769 0.538091 20.4971 1.59089 21.571C2.64421 22.6444 4.05124 23.2365 5.55434 23.2365H7.7847C8.26201 23.2365 8.64955 22.8484 8.64955 22.3704C8.64955 18.3116 11.9472 15.0093 16.0007 15.0093C20.0541 15.0093 23.3519 18.3117 23.3519 22.3704C23.3519 22.8484 23.7394 23.2365 24.2167 23.2365H25.4365C28.9521 23.2365 31.832 20.5539 31.9926 17.1289C32.0761 15.3556 31.4502 13.6728 30.2294 12.3918L30.2298 12.3919Z" fill="#1A6F8B"/>
<path d="M16.0004 16.7407C12.9008 16.7407 10.3789 19.2662 10.3789 22.3703C10.3789 25.4743 12.9008 27.9998 16.0004 27.9998C19.1 27.9998 21.6218 25.4881 21.6218 22.4005C21.6218 19.2798 19.1 16.7407 16.0004 16.7407ZM18.7739 22.9827C18.6048 23.1521 18.384 23.2365 18.1625 23.2365C17.9409 23.2365 17.7201 23.1521 17.551 22.9827L16.8652 22.2959V24.5356C16.8652 25.0136 16.4776 25.4016 16.0003 25.4016C15.523 25.4016 15.1355 25.0136 15.1355 24.5356V22.2959L14.4497 22.9827C14.1118 23.321 13.5646 23.321 13.2267 22.9827C12.8889 22.6444 12.8889 22.0964 13.2267 21.758L15.0831 19.899C15.2906 19.6916 15.5522 19.5737 15.823 19.5365C15.8804 19.5244 15.9398 19.5179 16.0003 19.5179C16.0609 19.5179 16.12 19.5244 16.1772 19.5365C16.448 19.5737 16.7091 19.6911 16.9166 19.898L18.7739 21.758C19.1115 22.0963 19.1115 22.6444 18.7739 22.9827Z" fill="#1A6F8B"/>
</svg>
