<svg width="32" height="32" viewBox="0 0 32 32" fill="none" xmlns="http://www.w3.org/2000/svg">
<path d="M16 25.5998C12.6667 25.5998 9.72002 23.8932 8.00002 21.3332C8.04002 18.6665 13.3334 17.1998 16 17.1998C18.6667 17.1998 23.96 18.6665 24 21.3332C23.1185 22.6457 21.9278 23.7214 20.5328 24.4654C19.1377 25.2094 17.5811 25.599 16 25.5998ZM16 6.6665C17.0609 6.6665 18.0783 7.08793 18.8284 7.83808C19.5786 8.58822 20 9.60564 20 10.6665C20 11.7274 19.5786 12.7448 18.8284 13.4949C18.0783 14.2451 17.0609 14.6665 16 14.6665C14.9392 14.6665 13.9217 14.2451 13.1716 13.4949C12.4214 12.7448 12 11.7274 12 10.6665C12 9.60564 12.4214 8.58822 13.1716 7.83808C13.9217 7.08793 14.9392 6.6665 16 6.6665ZM16 2.6665C14.2491 2.6665 12.5152 3.01138 10.8976 3.68144C9.2799 4.35151 7.81004 5.33363 6.57193 6.57175C4.07144 9.07223 2.66669 12.4636 2.66669 15.9998C2.66669 19.5361 4.07144 22.9274 6.57193 25.4279C7.81004 26.666 9.2799 27.6482 10.8976 28.3182C12.5152 28.9883 14.2491 29.3332 16 29.3332C19.5362 29.3332 22.9276 27.9284 25.4281 25.4279C27.9286 22.9274 29.3334 19.5361 29.3334 15.9998C29.3334 8.6265 23.3334 2.6665 16 2.6665Z" fill="#477782"/>
</svg>
