<svg width="32" height="32" viewBox="0 0 32 32" fill="none" xmlns="http://www.w3.org/2000/svg">
<path d="M16 25.6C12.6667 25.6 9.71999 23.8933 7.99999 21.3333C8.03999 18.6666 13.3333 17.2 16 17.2C18.6667 17.2 23.96 18.6666 24 21.3333C23.1185 22.6458 21.9278 23.7215 20.5327 24.4655C19.1377 25.2096 17.5811 25.5991 16 25.6ZM16 6.66663C17.0609 6.66663 18.0783 7.08805 18.8284 7.8382C19.5786 8.58834 20 9.60576 20 10.6666C20 11.7275 19.5786 12.7449 18.8284 13.4951C18.0783 14.2452 17.0609 14.6666 16 14.6666C14.9391 14.6666 13.9217 14.2452 13.1716 13.4951C12.4214 12.7449 12 11.7275 12 10.6666C12 9.60576 12.4214 8.58834 13.1716 7.8382C13.9217 7.08805 14.9391 6.66663 16 6.66663ZM16 2.66663C14.249 2.66663 12.5152 3.0115 10.8975 3.68157C9.27987 4.35163 7.81001 5.33375 6.5719 6.57187C4.07141 9.07235 2.66666 12.4637 2.66666 16C2.66666 19.5362 4.07141 22.9276 6.5719 25.428C7.81001 26.6662 9.27987 27.6483 10.8975 28.3184C12.5152 28.9884 14.249 29.3333 16 29.3333C19.5362 29.3333 22.9276 27.9285 25.4281 25.428C27.9286 22.9276 29.3333 19.5362 29.3333 16C29.3333 8.62663 23.3333 2.66663 16 2.66663Z" fill="#D7D1CB"/>
</svg>
