<svg width="64" height="64" viewBox="0 0 64 64" fill="none" xmlns="http://www.w3.org/2000/svg">
<g clip-path="url(#clip0_7_4318)">
<rect width="64" height="64" rx="16" fill="#E6EFF2"/>
<path d="M22.0267 21.6501H40.776C41.1844 21.6501 41.5176 21.3187 41.5176 20.9103C41.5176 20.5018 41.1844 20.1704 40.776 20.1704H22.0267C21.6183 20.1704 21.2869 20.5018 21.2869 20.9103C21.2869 21.3169 21.6183 21.6501 22.0267 21.6501Z" fill="#005F7E"/>
<path d="M22.0267 26.5783H40.776C41.1844 26.5783 41.5176 26.247 41.5176 25.8385C41.5176 25.43 41.1844 25.0986 40.776 25.0986H22.0267C21.6183 25.0986 21.2869 25.43 21.2869 25.8385C21.2869 26.247 21.6183 26.5783 22.0267 26.5783Z" fill="#005F7E"/>
<path d="M22.0267 31.509H40.776C41.1844 31.509 41.5176 31.1776 41.5176 30.7692C41.5176 30.3607 41.1844 30.0293 40.776 30.0293H22.0267C21.6183 30.0293 21.2869 30.3607 21.2869 30.7692C21.2869 31.1776 21.6183 31.509 22.0267 31.509Z" fill="#005F7E"/>
<path d="M51.9683 24.3734L46.3469 20.4681L46.4831 16.5916C46.4831 16.1831 46.1499 15.8517 45.7414 15.8517H38.6133C38.6079 15.8481 38.6061 15.8409 38.6007 15.8373L31.8365 11.1259C31.8311 11.1223 31.8257 11.1223 31.8221 11.1187C31.781 11.0917 31.7342 11.0794 31.6895 11.0596C31.6448 11.0416 31.5998 11.0167 31.5534 11.0077C31.5264 11.0023 31.4997 11.0077 31.4709 11.0059C31.4028 11.0005 31.3365 10.9951 31.2702 11.0077C31.2415 11.0131 31.2166 11.0311 31.1878 11.0401C31.1251 11.0599 31.0624 11.0794 31.0069 11.1172C31.0015 11.1208 30.9961 11.1208 30.9907 11.1244L24.1997 15.8427C24.1962 15.8463 24.1944 15.8499 24.1908 15.8517H17.1737C16.7652 15.8517 16.4338 16.1831 16.4338 16.5916V20.5272L10.8982 24.3735C10.8982 24.3735 8.66241 25.9087 11.2458 27.745L17.9009 32.4763L17.9135 32.1665V17.3335H45.0013V32.5642C45.0013 32.5642 46.4328 31.4267 51.6205 27.7453C54.2056 25.9126 51.968 24.3738 51.968 24.3738L51.9683 24.3734Z" fill="#005F7E"/>
<path d="M16.4162 32.5744L10.698 28.5581V50.3668C10.698 50.8935 11.1281 51.3199 11.6547 51.3199H51.1485C51.677 51.3199 52.1052 50.8934 52.1052 50.3668L52.1049 28.5712L46.4854 32.5767L45.0039 33.6335L36.769 39.5023L46.6776 47.1642C47.0018 47.4132 47.059 47.8789 46.8101 48.2034C46.5576 48.5258 46.0955 48.5831 45.771 48.3359L31.1868 37.0554L28.9207 38.8449C28.8955 38.8755 28.7953 38.9559 28.6826 39.024L27.7367 39.771C27.6902 39.8175 27.6398 39.8571 27.5843 39.891L16.888 48.3301C16.5656 48.5826 16.1017 48.5253 15.8489 48.2065C15.5964 47.8842 15.6501 47.4184 15.9725 47.1656L25.967 39.2831L17.8573 33.5864L16.4162 32.5744Z" fill="#005F7E"/>
</g>
<defs>
<clipPath id="clip0_7_4318">
<rect width="64" height="64" rx="16" fill="white"/>
</clipPath>
</defs>
</svg>
