<svg width="16" height="16" viewBox="0 0 16 16" fill="none" xmlns="http://www.w3.org/2000/svg">
<path d="M8 1.5C4.4101 1.5 1.5 4.4101 1.5 8C1.5 11.5899 4.4101 14.5 8 14.5C11.5899 14.5 14.5 11.5899 14.5 8C14.5 4.4101 11.5899 1.5 8 1.5ZM11.1811 7.08318L7.85761 10.0919C7.77613 10.1657 7.68118 10.2154 7.58168 10.2414C7.49592 10.2797 7.40388 10.2994 7.31148 10.2994C7.14707 10.2994 6.98239 10.2388 6.85365 10.1167L4.80735 8.17429C4.54098 7.92138 4.53007 7.50054 4.78296 7.23416C5.03558 6.96779 5.45661 6.95679 5.72308 7.20967L7.3518 8.75573L10.2882 6.09709C10.5604 5.85057 10.981 5.87142 11.2274 6.1437C11.4741 6.416 11.4532 6.83656 11.1811 7.08317L11.1811 7.08318Z" fill="#005F7E"/>
</svg>
