<svg width="24" height="24" viewBox="0 0 24 24" fill="none" xmlns="http://www.w3.org/2000/svg">
<rect width="24" height="24" rx="4" fill="#E6EFF2"/>
<g clip-path="url(#clip0_193_1952)">
<path d="M6 15.504V18.004H8.5L15.872 10.632L13.372 8.13196L6 15.504ZM17.805 8.69496C17.8668 8.63329 17.9158 8.56003 17.9493 8.47938C17.9827 8.39873 18 8.31227 18 8.22496C18 8.13765 17.9827 8.0512 17.9493 7.97055C17.9158 7.8899 17.8668 7.81664 17.805 7.75496L16.245 6.19496C16.1833 6.13316 16.1101 6.08413 16.0294 6.05067C15.9488 6.01722 15.8623 6 15.775 6C15.6877 6 15.6012 6.01722 15.5206 6.05067C15.4399 6.08413 15.3667 6.13316 15.305 6.19496L14.085 7.41496L16.585 9.91496L17.805 8.69496Z" fill="#005F7E"/>
</g>
<defs>
<clipPath id="clip0_193_1952">
<rect width="12" height="12" fill="white" transform="translate(6 6)"/>
</clipPath>
</defs>
</svg>
