<svg width="32" height="32" viewBox="0 0 32 32" fill="none" xmlns="http://www.w3.org/2000/svg">
<path fill-rule="evenodd" clip-rule="evenodd" d="M16 6.4C14.3209 6.39969 12.6711 6.83978 11.2153 7.67635C9.75942 8.51292 8.54845 9.7167 7.70323 11.1675C6.85801 12.6184 6.4081 14.2655 6.39841 15.9446C6.38872 17.6237 6.81959 19.2759 7.64801 20.7364C8.20794 20.0087 8.92772 19.4195 9.75171 19.0144C10.5757 18.6092 11.4818 18.399 12.4 18.4H19.6C20.5182 18.399 21.4243 18.6092 22.2483 19.0144C23.0723 19.4195 23.7921 20.0087 24.352 20.7364C25.1804 19.2759 25.6113 17.6237 25.6016 15.9446C25.5919 14.2655 25.142 12.6184 24.2968 11.1675C23.4516 9.7167 22.2406 8.51292 20.7847 7.67635C19.3289 6.83978 17.6791 6.39969 16 6.4ZM25.5316 23.2912C27.136 21.1995 28.0039 18.6361 28 16C28 9.3724 22.6276 4 16 4C9.37241 4 4.00001 9.3724 4.00001 16C3.99605 18.6361 4.8639 21.1996 6.46841 23.2912L6.46241 23.3128L6.88841 23.8084C8.01387 25.1242 9.41127 26.1803 10.9843 26.9039C12.5573 27.6276 14.2685 28.0015 16 28C18.4328 28.0045 20.8089 27.2655 22.81 25.882C23.6631 25.2926 24.4367 24.5956 25.1116 23.8084L25.5376 23.3128L25.5316 23.2912ZM16 8.8C15.0452 8.8 14.1295 9.17928 13.4544 9.85441C12.7793 10.5295 12.4 11.4452 12.4 12.4C12.4 13.3548 12.7793 14.2704 13.4544 14.9456C14.1295 15.6207 15.0452 16 16 16C16.9548 16 17.8705 15.6207 18.5456 14.9456C19.2207 14.2704 19.6 13.3548 19.6 12.4C19.6 11.4452 19.2207 10.5295 18.5456 9.85441C17.8705 9.17928 16.9548 8.8 16 8.8Z" fill="white"/>
</svg>
