<svg width="32" height="32" viewBox="0 0 32 32" fill="none" xmlns="http://www.w3.org/2000/svg">
<path d="M21.8824 8.57148H25.6588L21.2942 4.33154V8.00005C21.2942 8.15172 21.3562 8.297 21.4665 8.40423C21.5767 8.51126 21.7265 8.57144 21.8824 8.57144L21.8824 8.57148Z" fill="#80AFBF"/>
<path d="M21.8825 9.71433C21.4145 9.71433 20.9656 9.53376 20.6347 9.21209C20.3038 8.89062 20.1177 8.45453 20.1177 7.99994V4H7.76461C7.29663 4 6.84774 4.18057 6.5168 4.50204C6.18587 4.82351 6 5.25959 6 5.71419V26.2858C6 26.7404 6.18588 27.1765 6.5168 27.498C6.84773 27.8194 7.29664 28 7.76461 28H24.2354C24.7034 28 25.1523 27.8194 25.4832 27.498C25.8141 27.1765 26 26.7404 26 26.2858V9.71423L21.8825 9.71433ZM11.2942 9.71433H17.1766C17.5016 9.71433 17.765 9.97003 17.765 10.2857C17.765 10.6014 17.5016 10.8571 17.1766 10.8571H11.2942C10.9694 10.8571 10.706 10.6014 10.706 10.2857C10.706 9.97003 10.9694 9.71433 11.2942 9.71433ZM21.8825 22.2859H11.2942C10.9694 22.2859 10.706 22.0302 10.706 21.7145C10.706 21.3988 10.9694 21.1431 11.2942 21.1431H21.8825C22.2075 21.1431 22.4707 21.3988 22.4707 21.7145C22.4707 22.0302 22.2075 22.2859 21.8825 22.2859ZM21.8825 16.5715H11.2942C10.9694 16.5715 10.706 16.3158 10.706 16.0002C10.706 15.6845 10.9694 15.4288 11.2942 15.4288H21.8825C22.2075 15.4288 22.4707 15.6845 22.4707 16.0002C22.4707 16.3158 22.2075 16.5715 21.8825 16.5715Z" fill="#80AFBF"/>
</svg>
