<svg width="32" height="32" viewBox="0 0 32 32" fill="none" xmlns="http://www.w3.org/2000/svg">
<path d="M14.5 11.5C14.5 11.9142 14.1642 12.25 13.75 12.25C13.3358 12.25 13 11.9142 13 11.5C13 11.0858 13.3358 10.75 13.75 10.75C14.1642 10.75 14.5 11.0858 14.5 11.5Z" fill="#80AFBF"/>
<path d="M9.25 8.5V17.5H18.25V8.5H9.25ZM16.75 16C16.75 16.4125 16.4125 16.75 16 16.75H11.5C11.0875 16.75 10.75 16.4125 10.75 16V14.9724C10.75 14.0573 11.2 13.2625 11.8901 12.7675C11.6427 12.4075 11.5 11.9649 11.5 11.5C11.5 10.2625 12.5125 9.25 13.75 9.25C14.9875 9.25 16 10.2625 16 11.5C16 11.9651 15.8576 12.4075 15.6099 12.7675C16.3 13.2625 16.75 14.0575 16.75 14.9724L16.75 16Z" fill="#80AFBF"/>
<path d="M14.0294 13.75H13.4706C12.7974 13.75 12.25 14.2979 12.25 14.9709V15.25H15.25V14.9709C15.25 14.2978 14.7026 13.75 14.0294 13.75H14.0294Z" fill="#80AFBF"/>
<path d="M21.25 4H6.25C5.0125 4 4 5.0125 4 6.25V25.75C4 26.9875 5.0125 28 6.25 28H18.52C17.5525 27.2276 16.8101 26.1925 16.39 25H8.50004C8.08754 25 7.75004 24.6625 7.75004 24.25C7.75004 23.8375 8.08754 23.5 8.50004 23.5H16.045C16.0151 23.2526 16 23.005 16 22.75C16 22.495 16.0151 22.2474 16.045 22H8.50004C8.08754 22 7.75004 21.6625 7.75004 21.25C7.75004 20.8375 8.08754 20.5 8.50004 20.5H16.39C16.5775 19.9675 16.8325 19.4651 17.14 19H9.25004C8.42504 19 7.75004 18.325 7.75004 17.5V8.5C7.75004 7.675 8.42504 7 9.25004 7H18.25C19.075 7 19.75 7.675 19.75 8.5V16.705C20.6576 16.255 21.6776 16 22.75 16C23.005 16 23.2526 16.0151 23.5 16.0451V6.25008C23.5 5.01258 22.4875 4.00008 21.25 4.00008L21.25 4Z" fill="#80AFBF"/>
<path d="M22.75 17.5C19.855 17.5 17.5 19.855 17.5 22.75C17.5 25.645 19.855 28 22.75 28C25.645 28 28 25.645 28 22.75C28 19.855 25.645 17.5 22.75 17.5ZM24.7825 22.33L22.8851 24.2274C22.7427 24.3699 22.5476 24.4524 22.3526 24.4524C22.15 24.4524 21.9625 24.3699 21.82 24.2274L20.7175 23.1248C20.425 22.8324 20.425 22.3597 20.7175 22.0673C21.0099 21.7748 21.4899 21.7748 21.7825 22.0673L22.3526 22.6373L23.7177 21.2722C24.0101 20.9798 24.4901 20.9798 24.7828 21.2722C25.0752 21.5647 25.0752 22.0373 24.7828 22.3298L24.7825 22.33Z" fill="#80AFBF"/>
</svg>
