<svg width="64" height="64" viewBox="0 0 64 64" fill="none" xmlns="http://www.w3.org/2000/svg">
<rect width="64" height="64" rx="32" fill="#FF5C5E" fill-opacity="0.16"/>
<path d="M32 17C23.75 17 17 23.75 17 32C17 40.25 23.75 47 32 47C40.25 47 47 40.25 47 32C47 23.75 40.25 17 32 17ZM32 20.3333C34.5833 20.3333 37 21.25 39 22.6667L22.6667 39C21.25 37 20.3333 34.5833 20.3333 32C20.3333 25.5833 25.5833 20.3333 32 20.3333ZM32 43.6667C29.4167 43.6667 27 42.75 25 41.3333L41.3333 25C42.75 27 43.6667 29.4167 43.6667 32C43.6667 38.4167 38.4167 43.6667 32 43.6667Z" fill="#FF5C5E"/>
</svg>
